<?xml version="1.0" encoding="utf-8"?>
<!-- Generator: Adobe Illustrator 21.0.0, SVG Export Plug-In . SVG Version: 6.00 Build 0)  -->
<!DOCTYPE svg PUBLIC "-//W3C//DTD SVG 1.1//EN" "http://www.w3.org/Graphics/SVG/1.1/DTD/svg11.dtd">
<svg version="1.1" id="Capa_1" xmlns="http://www.w3.org/2000/svg" xmlns:xlink="http://www.w3.org/1999/xlink" x="0px" y="0px"
	 viewBox="0 0 421.1 118.1" style="enable-background:new 0 0 421.1 118.1;" xml:space="preserve">
<style type="text/css">
	.st0{fill:#990099;}
	.st1{fill:#FFFFFF;}
	.st2{fill:#333333;}
</style>
<title>logo__gext</title>
<path class="st0" d="M12,0h94.1c6.6,0,12,5.4,12,12v94.1c0,6.6-5.4,12-12,12H12c-6.6,0-12-5.4-12-12V12C0,5.4,5.4,0,12,0z"/>
<path class="st1" d="M55.3,63.9c-2.9,0-5.1,0.9-6.6,2.6s-2.2,5.5-2.2,11.4c0.1,3.4-0.1,6.8-0.5,10.1c-0.3,2-1.1,3.9-2.4,5.5
	c-1.3,1.5-3.1,2.6-5,3.2c-2.8,0.8-5.7,1.1-8.6,1h-2.1V88c3.7,0,6-0.4,6.8-1.2s1.3-2.4,1.3-4.7c0-4.4,0.2-8.8,0.7-13.2
	c0.3-1.9,1-3.8,2-5.5c1.2-1.9,2.8-3.4,4.8-4.4c-1.9-1.1-3.5-2.6-4.8-4.4c-0.9-1.4-1.5-3-1.8-4.7c-0.4-3.1-0.7-6.3-0.7-9.5
	c0-2.7-0.2-5.3-0.6-7.9c-0.3-0.7-0.8-1.4-1.6-1.7c-0.8-0.5-2.9-0.7-6.2-0.7v-9.6H30c4.3,0,7.6,0.5,9.9,1.5c2.2,0.9,4.1,2.6,5.1,4.8
	c1,2.2,1.6,5.8,1.6,10.8c0,5.7,0.2,9.3,0.6,10.7c0.4,1.5,1.2,2.8,2.2,4c1.1,1.2,3.1,1.9,6,2L55.3,63.9z"/>
<path class="st1" d="M90.2,63.9c-2.9,0-5.1,0.9-6.6,2.6s-2.2,5.5-2.2,11.4c0.1,3.4-0.1,6.8-0.5,10.1c-0.3,2-1.1,3.9-2.4,5.5
	c-1.3,1.5-3.1,2.6-5,3.2c-2.8,0.8-5.7,1.1-8.6,1h-2.1V88c3.7,0,6-0.4,6.9-1.2c0.8-0.8,1.3-2.4,1.4-4.7c0-4.4,0.2-8.8,0.7-13.2
	c0.3-1.9,1-3.8,2-5.5c1.2-1.9,2.8-3.4,4.8-4.4c-1.9-1.1-3.5-2.6-4.8-4.4c-0.9-1.4-1.5-3-1.9-4.7c-0.4-3.1-0.7-6.3-0.7-9.5
	c0-2.7-0.2-5.3-0.6-7.9c-0.3-0.7-0.8-1.4-1.6-1.7c-0.8-0.5-2.9-0.7-6.2-0.7v-9.6h2.1c4.3,0,7.6,0.5,9.9,1.5c2.2,0.9,4.1,2.6,5.1,4.8
	c1,2.2,1.6,5.8,1.6,10.8c0,5.7,0.2,9.3,0.6,10.7c0.4,1.5,1.2,2.8,2.2,4c1.1,1.2,3.1,1.9,6,2L90.2,63.9z"/>
<path class="st2" d="M225.7,28.6l-12.1,12c-7.7-8.1-16.6-12.2-26.8-12.2c-8.9,0-16.4,3-22.4,8.9c-5.9,5.6-9.1,13.4-9,21.5
	c-0.1,8.4,3.3,16.5,9.4,22.2c6.2,6.1,13.9,9.1,23.1,9.1c6,0,11-1.2,15.1-3.8s7.4-6.4,9.9-11.8h-26.2V58.4H232l0.1,3.8
	c0,7.9-2.1,15.7-6.1,22.5c-3.8,6.7-9.3,12.4-15.9,16.2c-6.5,3.7-14.2,5.6-23,5.6c-8.8,0.2-17.4-2-25.1-6.1
	c-7.3-4.1-13.4-10.1-17.5-17.4c-4.3-7.4-6.5-15.9-6.4-24.4c-0.2-11.5,4.1-22.7,11.9-31.2c9.4-10.5,21.6-15.8,36.7-15.8
	c7.6-0.1,15.1,1.4,22.1,4.4C214.5,18.3,220.1,22.6,225.7,28.6z"/>
<path class="st2" d="M310,75.7h-54c0.6,4.4,2.8,8.5,6.2,11.4c3.4,2.8,7.7,4.2,13,4.2c6.1,0.1,11.9-2.3,16.2-6.6l14.1,6.6
	c-3.2,4.7-7.6,8.5-12.7,11.1c-5.5,2.5-11.5,3.8-17.5,3.6c-10.5,0-19-3.3-25.6-9.9c-6.6-6.6-9.9-14.9-9.9-24.9
	c0-10.2,3.3-18.7,9.9-25.4c6.6-6.7,14.8-10.1,24.8-10.1c10.5,0,19.1,3.4,25.7,10.1c6.6,6.7,9.9,15.7,9.9,26.7L310,75.7z M293.2,62.5
	c-1.1-3.7-3.4-6.9-6.6-9.1c-3.3-2.4-7.3-3.6-11.4-3.5c-4.4-0.1-8.8,1.3-12.3,3.9c-2.2,1.6-4.3,4.5-6.2,8.7H293.2z"/>
<path class="st2" d="M314.4,37.4h19.5l13.2,18.2l13.2-18.2h19.2l-22.7,31.5l25.7,35.4H363l-15.9-22l-15.9,22H312l25.4-35.2
	L314.4,37.4z"/>
<path class="st2" d="M394.3,12.7h16.8v24.7h10v14.5h-10v52.5h-16.8V51.8h-8.6V37.4h8.6V12.7z"/>
</svg>
