<svg id="Capa_1" data-name="Capa 1" xmlns="http://www.w3.org/2000/svg" viewBox="0 0 424.82 157.96"><defs><style>.cls-1{fill:#909;}.cls-2{fill:#fff;}.cls-3{fill:#333;}</style></defs><title>logo__gext</title><rect class="cls-1" width="118.09" height="118.09" rx="12" ry="12"/><path class="cls-2" d="M55.35,63.87q-4.38,0-6.59,2.61T46.55,77.89A76.39,76.39,0,0,1,46.07,88a10.46,10.46,0,0,1-2.41,5.49,10.89,10.89,0,0,1-5,3.2,29.5,29.5,0,0,1-8.64,1H27.9V88q5.58,0,6.85-1.17t1.35-4.74a119.24,119.24,0,0,1,.74-13.2,15.79,15.79,0,0,1,2-5.45A12.87,12.87,0,0,1,43.61,59a15.76,15.76,0,0,1-4.82-4.42,13.46,13.46,0,0,1-1.85-4.72,74.69,74.69,0,0,1-.72-9.48,54.85,54.85,0,0,0-.56-7.94,3.21,3.21,0,0,0-1.55-1.73Q32.88,30,27.86,30v-9.6H30q6.43,0,9.93,1.47A9.41,9.41,0,0,1,45,26.69Q46.55,30,46.55,37.46q0,8.52.62,10.73a10.41,10.41,0,0,0,2.21,4q1.59,1.83,6,2Z" transform="translate(0)"/><path class="cls-2" d="M90.23,63.87q-4.38,0-6.59,2.61T81.43,77.89A76.39,76.39,0,0,1,81,88a10.46,10.46,0,0,1-2.41,5.49,10.89,10.89,0,0,1-5,3.2,29.5,29.5,0,0,1-8.64,1H62.79V88q5.58,0,6.85-1.17T71,82.11a119.24,119.24,0,0,1,.74-13.2,15.79,15.79,0,0,1,2-5.45A12.87,12.87,0,0,1,78.5,59a15.76,15.76,0,0,1-4.82-4.42,13.46,13.46,0,0,1-1.85-4.72,74.69,74.69,0,0,1-.72-9.48,54.85,54.85,0,0,0-.56-7.94A3.21,3.21,0,0,0,69,30.75Q67.77,30,62.75,30v-9.6h2.13q6.43,0,9.93,1.47a9.41,9.41,0,0,1,5.06,4.8Q81.43,30,81.43,37.46q0,8.52.62,10.73a10.41,10.41,0,0,0,2.21,4q1.59,1.83,6,2Z" transform="translate(0)"/><path class="cls-3" d="M2.43,130.81H6.74a14.21,14.21,0,0,1,5,.65,5.14,5.14,0,0,1,2.44,2.09,6.47,6.47,0,0,1,.89,3.47A5.82,5.82,0,0,1,14,140.73a6.07,6.07,0,0,1-3.17,2.06,18.27,18.27,0,0,1-4.29.33v9.05H2.43Zm4.07,8.35H7.79a7,7,0,0,0,2.12-.22,1.88,1.88,0,0,0,.94-.72,2.12,2.12,0,0,0,.34-1.22,2,2,0,0,0-1-1.81,5.46,5.46,0,0,0-2.59-.42H6.49Z" transform="translate(0)"/><path class="cls-3" d="M17,136.37h3.4v2a4.24,4.24,0,0,1,1.47-1.79,3.54,3.54,0,0,1,2-.61,3.72,3.72,0,0,1,1.61.41l-1.23,3.42a2.73,2.73,0,0,0-1.15-.35,1.82,1.82,0,0,0-1.55,1.13,10.37,10.37,0,0,0-.63,4.45v7.16H17Z" transform="translate(0)"/><path class="cls-3" d="M42.54,145.42H29.79a4.24,4.24,0,0,0,1.47,2.68,4.63,4.63,0,0,0,3.06,1,5.29,5.29,0,0,0,3.82-1.55l3.34,1.57a7.89,7.89,0,0,1-3,2.62,9.36,9.36,0,0,1-4.14.85,8.18,8.18,0,0,1-6.06-2.35A8,8,0,0,1,26,144.36a8.26,8.26,0,0,1,2.33-6A7.83,7.83,0,0,1,34.14,136a8.12,8.12,0,0,1,6.07,2.39,8.64,8.64,0,0,1,2.34,6.31Zm-4-3.12A4,4,0,0,0,37,140.15a4.49,4.49,0,0,0-2.69-.83,4.74,4.74,0,0,0-2.91.93,5.18,5.18,0,0,0-1.46,2Z" transform="translate(0)"/><path class="cls-3" d="M54.68,138.58,52.23,141a4.16,4.16,0,0,0-2.72-1.48,1.7,1.7,0,0,0-1,.28.85.85,0,0,0-.38.7.87.87,0,0,0,.24.59,4.44,4.44,0,0,0,1.18.73l1.45.73a8.56,8.56,0,0,1,3.15,2.31,4.81,4.81,0,0,1-.69,6.28,5.92,5.92,0,0,1-4.15,1.41,6.59,6.59,0,0,1-5.52-2.7l2.44-2.66a5.64,5.64,0,0,0,1.63,1.32,3.62,3.62,0,0,0,1.66.5,2,2,0,0,0,1.26-.38,1.09,1.09,0,0,0,.48-.87q0-.92-1.73-1.79l-1.34-.67q-3.84-1.93-3.84-4.84a4.2,4.2,0,0,1,1.45-3.2,5.25,5.25,0,0,1,3.7-1.33,6.42,6.42,0,0,1,5.2,2.62Z" transform="translate(0)"/><path class="cls-3" d="M73.19,145.42H60.45a4.24,4.24,0,0,0,1.47,2.68,4.63,4.63,0,0,0,3.06,1,5.29,5.29,0,0,0,3.82-1.55l3.34,1.57a7.89,7.89,0,0,1-3,2.62,9.36,9.36,0,0,1-4.14.85A8.18,8.18,0,0,1,59,150.24a8,8,0,0,1-2.34-5.88,8.26,8.26,0,0,1,2.33-6A7.83,7.83,0,0,1,64.79,136a8.12,8.12,0,0,1,6.07,2.39,8.64,8.64,0,0,1,2.34,6.31Zm-4-3.12a4,4,0,0,0-1.55-2.15,4.49,4.49,0,0,0-2.69-.83,4.74,4.74,0,0,0-2.91.93,5.18,5.18,0,0,0-1.46,2Z" transform="translate(0)"/><path class="cls-3" d="M75.66,136.37h4V138a9.53,9.53,0,0,1,2.44-1.58,5.92,5.92,0,0,1,2.24-.44,5.43,5.43,0,0,1,4,1.64,5.64,5.64,0,0,1,1.38,4.13v10.45H85.75v-6.92a17.53,17.53,0,0,0-.25-3.76,2.58,2.58,0,0,0-.88-1.42,2.48,2.48,0,0,0-1.56-.49,2.92,2.92,0,0,0-2.07.81,4.3,4.3,0,0,0-1.2,2.23,18,18,0,0,0-.17,3.21v6.34h-4Z" transform="translate(0)"/><path class="cls-3" d="M93.25,130.54h4v5.83h2.35v3.42H97.22v12.39h-4V139.79h-2v-3.42h2Z" transform="translate(0)"/><path class="cls-3" d="M112.61,136.37h4v15.81h-4v-1.67a7.77,7.77,0,0,1-2.33,1.59,6.52,6.52,0,0,1-2.53.49,7,7,0,0,1-5.3-2.38,8.29,8.29,0,0,1-2.23-5.91,8.49,8.49,0,0,1,2.16-6,6.89,6.89,0,0,1,5.25-2.34,6.68,6.68,0,0,1,2.67.54,7.29,7.29,0,0,1,2.31,1.61Zm-4.17,3.25a4,4,0,0,0-3.06,1.3,5.19,5.19,0,0,0,0,6.71,4,4,0,0,0,3,1.32,4.09,4.09,0,0,0,3.1-1.3,4.75,4.75,0,0,0,1.23-3.41,4.62,4.62,0,0,0-1.23-3.34A4.14,4.14,0,0,0,108.44,139.63Z" transform="translate(0)"/><path class="cls-3" d="M120.33,130.54h4v5.83h2.35v3.42h-2.35v12.39h-4V139.79h-2v-3.42h2Z" transform="translate(0)"/><path class="cls-3" d="M129.57,129.86a2.43,2.43,0,0,1,1.79.75,2.51,2.51,0,0,1,.75,1.83,2.48,2.48,0,0,1-.74,1.81,2.4,2.4,0,0,1-1.77.75,2.43,2.43,0,0,1-1.8-.76,2.55,2.55,0,0,1-.75-1.85,2.53,2.53,0,0,1,2.52-2.53Zm-2,6.51h4v15.81h-4Z" transform="translate(0)"/><path class="cls-3" d="M141.84,136a8.39,8.39,0,0,1,4.21,1.12,8.21,8.21,0,0,1,4.18,7.18,8.3,8.3,0,0,1-1.11,4.18,8,8,0,0,1-3,3,8.36,8.36,0,0,1-4.23,1.1,7.88,7.88,0,0,1-5.8-2.42,8.38,8.38,0,0,1,.31-12.05A7.94,7.94,0,0,1,141.84,136Zm.07,3.73a4.08,4.08,0,0,0-3.08,1.29,4.57,4.57,0,0,0-1.23,3.29,4.65,4.65,0,0,0,1.22,3.34,4.06,4.06,0,0,0,3.08,1.28,4.11,4.11,0,0,0,3.1-1.29,5.1,5.1,0,0,0,0-6.63A4.11,4.11,0,0,0,141.9,139.7Z" transform="translate(0)"/><path class="cls-3" d="M152.72,136.37h4V138a9.53,9.53,0,0,1,2.44-1.58,5.92,5.92,0,0,1,2.24-.44,5.43,5.43,0,0,1,4,1.64,5.64,5.64,0,0,1,1.38,4.13v10.45h-3.92v-6.92a17.53,17.53,0,0,0-.25-3.76,2.58,2.58,0,0,0-.88-1.42,2.48,2.48,0,0,0-1.56-.49,2.92,2.92,0,0,0-2.07.81,4.3,4.3,0,0,0-1.2,2.23,18,18,0,0,0-.17,3.21v6.34h-4Z" transform="translate(0)"/><path class="cls-3" d="M179.51,138.58,177.05,141a4.16,4.16,0,0,0-2.72-1.48,1.7,1.7,0,0,0-1,.28.85.85,0,0,0-.38.7.87.87,0,0,0,.24.59,4.44,4.44,0,0,0,1.18.73l1.45.73a8.56,8.56,0,0,1,3.15,2.31,4.81,4.81,0,0,1-.69,6.28,5.92,5.92,0,0,1-4.15,1.41,6.59,6.59,0,0,1-5.52-2.7l2.44-2.66a5.64,5.64,0,0,0,1.63,1.32,3.62,3.62,0,0,0,1.66.5,2,2,0,0,0,1.26-.38,1.09,1.09,0,0,0,.48-.87q0-.92-1.73-1.79l-1.34-.67q-3.84-1.93-3.84-4.84a4.2,4.2,0,0,1,1.45-3.2,5.25,5.25,0,0,1,3.7-1.33,6.42,6.42,0,0,1,5.2,2.62Z" transform="translate(0)"/><path class="cls-3" d="M188,136.37h3.88l3.18,9,3.42-9h2.38l3.36,8.89,3.18-8.89h3.91l-5.77,15.81H203l-3.37-9-3.47,9h-2.48Z" transform="translate(0)"/><path class="cls-3" d="M214.36,129.86a2.43,2.43,0,0,1,1.79.75,2.51,2.51,0,0,1,.75,1.83,2.48,2.48,0,0,1-.74,1.81,2.39,2.39,0,0,1-1.77.75,2.43,2.43,0,0,1-1.8-.76,2.55,2.55,0,0,1-.75-1.85,2.53,2.53,0,0,1,2.52-2.53Zm-2,6.51h4v15.81h-4Z" transform="translate(0)"/><path class="cls-3" d="M219.69,130.54h4v5.83H226v3.42h-2.35v12.39h-4V139.79h-2v-3.42h2Z" transform="translate(0)"/><path class="cls-3" d="M227.4,130.27h3.94V138a9,9,0,0,1,2.34-1.5,6,6,0,0,1,2.38-.5,5.37,5.37,0,0,1,4,1.63,5.68,5.68,0,0,1,1.38,4.14v10.45H237.5v-6.93a17.14,17.14,0,0,0-.26-3.72,2.6,2.6,0,0,0-.89-1.45,2.51,2.51,0,0,0-1.56-.48,2.94,2.94,0,0,0-2.07.8,4.23,4.23,0,0,0-1.2,2.18,18,18,0,0,0-.17,3.25v6.35H227.4Z" transform="translate(0)"/><path class="cls-1" d="M261.75,138.58,259.3,141a4.16,4.16,0,0,0-2.72-1.48,1.71,1.71,0,0,0-1,.28.85.85,0,0,0-.38.7.86.86,0,0,0,.24.59,4.46,4.46,0,0,0,1.18.73l1.45.73a8.56,8.56,0,0,1,3.15,2.31,4.81,4.81,0,0,1-.69,6.28,5.92,5.92,0,0,1-4.15,1.41,6.59,6.59,0,0,1-5.52-2.7l2.44-2.66a5.62,5.62,0,0,0,1.63,1.32,3.62,3.62,0,0,0,1.66.5,2,2,0,0,0,1.26-.38,1.09,1.09,0,0,0,.48-.87q0-.92-1.73-1.79l-1.34-.67q-3.84-1.93-3.84-4.84a4.2,4.2,0,0,1,1.45-3.2,5.25,5.25,0,0,1,3.7-1.33,6.42,6.42,0,0,1,5.2,2.62Z" transform="translate(0)"/><path class="cls-1" d="M264.41,136.37h4V144a10.54,10.54,0,0,0,.31,3.09,2.69,2.69,0,0,0,1,1.34,2.81,2.81,0,0,0,1.67.48,2.91,2.91,0,0,0,1.68-.47,2.77,2.77,0,0,0,1-1.39,10.65,10.65,0,0,0,.25-2.92v-7.74h4v6.7a16.45,16.45,0,0,1-.65,5.67,6.18,6.18,0,0,1-2.35,2.85,7.2,7.2,0,0,1-4,1,7,7,0,0,1-4.21-1.16,6.14,6.14,0,0,1-2.26-3.24,19.65,19.65,0,0,1-.46-5.23Z" transform="translate(0)"/><path class="cls-1" d="M285.48,136.37v1.74a7.46,7.46,0,0,1,2.33-1.61,6.69,6.69,0,0,1,2.67-.54,6.9,6.9,0,0,1,5.26,2.34,8.49,8.49,0,0,1,2.17,6,8.28,8.28,0,0,1-2.24,5.91,7,7,0,0,1-5.3,2.38,6.59,6.59,0,0,1-2.54-.49,7.74,7.74,0,0,1-2.34-1.59V158h-3.94V136.37Zm4.17,3.25a4.14,4.14,0,0,0-3.11,1.28,4.61,4.61,0,0,0-1.23,3.34,4.74,4.74,0,0,0,1.23,3.41,4.11,4.11,0,0,0,3.11,1.3,4,4,0,0,0,3.06-1.32,4.73,4.73,0,0,0,1.24-3.37,4.68,4.68,0,0,0-1.22-3.33A4,4,0,0,0,289.65,139.63Z" transform="translate(0)"/><path class="cls-1" d="M316.28,145.42H303.53A4.25,4.25,0,0,0,305,148.1a4.63,4.63,0,0,0,3.06,1,5.29,5.29,0,0,0,3.82-1.55l3.34,1.57a7.88,7.88,0,0,1-3,2.62,9.36,9.36,0,0,1-4.14.85,8.18,8.18,0,0,1-6.06-2.35,8,8,0,0,1-2.34-5.88,8.26,8.26,0,0,1,2.33-6,7.83,7.83,0,0,1,5.85-2.39,8.12,8.12,0,0,1,6.07,2.39,8.64,8.64,0,0,1,2.34,6.31Zm-4-3.12a4,4,0,0,0-1.55-2.15,4.49,4.49,0,0,0-2.69-.83,4.75,4.75,0,0,0-2.91.93,5.19,5.19,0,0,0-1.46,2Z" transform="translate(0)"/><path class="cls-1" d="M317.81,136.37h3.4v2a4.23,4.23,0,0,1,1.47-1.79,3.54,3.54,0,0,1,2-.61,3.72,3.72,0,0,1,1.61.41l-1.24,3.42a2.73,2.73,0,0,0-1.15-.35,1.82,1.82,0,0,0-1.55,1.13,10.38,10.38,0,0,0-.63,4.45v7.16h-3.94Z" transform="translate(0)"/><path class="cls-1" d="M331.45,136.37v1.74a7.46,7.46,0,0,1,2.33-1.61,6.69,6.69,0,0,1,2.67-.54,6.9,6.9,0,0,1,5.26,2.34,8.49,8.49,0,0,1,2.17,6,8.28,8.28,0,0,1-2.24,5.91,7,7,0,0,1-5.3,2.38,6.59,6.59,0,0,1-2.54-.49,7.74,7.74,0,0,1-2.34-1.59V158h-3.94V136.37Zm4.17,3.25a4.14,4.14,0,0,0-3.11,1.28,4.61,4.61,0,0,0-1.23,3.34,4.74,4.74,0,0,0,1.23,3.41,4.11,4.11,0,0,0,3.11,1.3,4,4,0,0,0,3.06-1.32,4.73,4.73,0,0,0,1.24-3.37,4.68,4.68,0,0,0-1.22-3.33A4,4,0,0,0,335.62,139.63Z" transform="translate(0)"/><path class="cls-1" d="M353.84,136a8.39,8.39,0,0,1,4.21,1.12,8.21,8.21,0,0,1,4.18,7.18,8.3,8.3,0,0,1-1.11,4.18,8,8,0,0,1-3,3,8.37,8.37,0,0,1-4.23,1.1,7.89,7.89,0,0,1-5.8-2.42,8.38,8.38,0,0,1,.31-12.05A7.94,7.94,0,0,1,353.84,136Zm.07,3.73a4.08,4.08,0,0,0-3.08,1.29,4.56,4.56,0,0,0-1.23,3.29,4.65,4.65,0,0,0,1.21,3.34,4.06,4.06,0,0,0,3.08,1.28,4.11,4.11,0,0,0,3.1-1.29,5.1,5.1,0,0,0,0-6.63A4.11,4.11,0,0,0,353.91,139.7Z" transform="translate(0)"/><path class="cls-1" d="M363,136.37h3.88l3.18,9,3.42-9h2.37l3.36,8.89,3.18-8.89h3.91l-5.77,15.81H378l-3.37-9-3.47,9h-2.48Z" transform="translate(0)"/><path class="cls-1" d="M403.61,145.42H390.87a4.25,4.25,0,0,0,1.47,2.68,4.63,4.63,0,0,0,3.06,1,5.29,5.29,0,0,0,3.82-1.55l3.34,1.57a7.88,7.88,0,0,1-3,2.62,9.36,9.36,0,0,1-4.14.85,8.18,8.18,0,0,1-6.06-2.35,8,8,0,0,1-2.34-5.88,8.26,8.26,0,0,1,2.33-6,7.83,7.83,0,0,1,5.85-2.39,8.12,8.12,0,0,1,6.07,2.39,8.64,8.64,0,0,1,2.34,6.31Zm-4-3.12a4,4,0,0,0-1.55-2.15,4.49,4.49,0,0,0-2.69-.83,4.75,4.75,0,0,0-2.91.93,5.19,5.19,0,0,0-1.46,2Z" transform="translate(0)"/><path class="cls-1" d="M405.15,136.37h3.4v2a4.23,4.23,0,0,1,1.47-1.79,3.54,3.54,0,0,1,2-.61,3.72,3.72,0,0,1,1.61.41l-1.24,3.42a2.73,2.73,0,0,0-1.15-.35,1.82,1.82,0,0,0-1.55,1.13,10.38,10.38,0,0,0-.63,4.45v7.16h-3.94Z" transform="translate(0)"/><path class="cls-1" d="M424.53,138.58,422.08,141a4.16,4.16,0,0,0-2.72-1.48,1.71,1.71,0,0,0-1,.28.85.85,0,0,0-.38.7.86.86,0,0,0,.24.59,4.46,4.46,0,0,0,1.18.73l1.45.73A8.56,8.56,0,0,1,424,144.9a4.81,4.81,0,0,1-.69,6.28,5.92,5.92,0,0,1-4.15,1.41,6.59,6.59,0,0,1-5.52-2.7l2.44-2.66a5.62,5.62,0,0,0,1.63,1.32,3.62,3.62,0,0,0,1.66.5,2,2,0,0,0,1.26-.38,1.09,1.09,0,0,0,.48-.87q0-.92-1.73-1.79l-1.34-.67q-3.84-1.93-3.84-4.84a4.2,4.2,0,0,1,1.45-3.2,5.25,5.25,0,0,1,3.7-1.33,6.42,6.42,0,0,1,5.2,2.62Z" transform="translate(0)"/><path class="cls-3" d="M225.66,28.56l-12.13,12Q202,28.38,186.69,28.38q-13.36,0-22.38,8.86a29,29,0,0,0-9,21.53A29.8,29.8,0,0,0,164.65,81q9.36,9.1,23.09,9.1,8.93,0,15.06-3.75t9.88-11.75H186.48V58.4H232l.12,3.81A44.31,44.31,0,0,1,226,84.73,43,43,0,0,1,210,101q-9.78,5.6-22.95,5.6A51,51,0,0,1,162,100.45,44.77,44.77,0,0,1,144.49,83a48.63,48.63,0,0,1-6.43-24.42,45.39,45.39,0,0,1,11.87-31.25Q164,11.52,186.6,11.52a55.85,55.85,0,0,1,22.08,4.37Q217.36,19.58,225.66,28.56Z" transform="translate(0)"/><path class="cls-3" d="M310,75.69H256A18,18,0,0,0,262.28,87q5.08,4.22,12.95,4.21a22.39,22.39,0,0,0,16.18-6.58l14.15,6.64a33.38,33.38,0,0,1-12.67,11.1,39.62,39.62,0,0,1-17.53,3.6q-15.75,0-25.65-9.93t-9.9-24.88q0-15.32,9.87-25.44t24.76-10.12q15.81,0,25.71,10.12t9.9,26.73ZM293.2,62.46a16.85,16.85,0,0,0-6.56-9.1,19,19,0,0,0-11.37-3.51,20.11,20.11,0,0,0-12.32,3.94q-3.33,2.46-6.16,8.67Z" transform="translate(0)"/><path class="cls-3" d="M314.41,37.36h19.5L347.14,55.6,360.3,37.36h19.17l-22.72,31.5,25.7,35.43h-19.5L347,82.34l-15.84,22H312l25.4-35.21Z" transform="translate(0)"/><path class="cls-3" d="M394.34,12.69h16.79V37.36h10V51.82h-10v52.47H394.34V51.82h-8.61V37.36h8.61Z" transform="translate(0)"/></svg>
