<svg id="Capa_1" data-name="Capa 1" xmlns="http://www.w3.org/2000/svg" viewBox="0 0 421.14 118.09"><defs><style>.cls-1{fill:#909;}.cls-2{fill:#fff;}.cls-3{fill:#333;}</style></defs><title>logo__gext_header</title><rect class="cls-1" width="118.09" height="118.09" rx="12" ry="12"/><path class="cls-2" d="M55.35,63.87q-4.38,0-6.59,2.61T46.55,77.89A76.39,76.39,0,0,1,46.07,88a10.46,10.46,0,0,1-2.41,5.49,10.89,10.89,0,0,1-5,3.2,29.5,29.5,0,0,1-8.64,1H27.91V88q5.58,0,6.85-1.17t1.35-4.74a119.24,119.24,0,0,1,.74-13.2,15.79,15.79,0,0,1,2-5.45,12.87,12.87,0,0,1,4.76-4.42,15.76,15.76,0,0,1-4.82-4.42,13.46,13.46,0,0,1-1.85-4.72,74.69,74.69,0,0,1-.72-9.48,54.85,54.85,0,0,0-.56-7.94,3.21,3.21,0,0,0-1.55-1.73q-1.23-.72-6.25-.72v-9.6H30q6.43,0,9.93,1.47A9.41,9.41,0,0,1,45,26.73q1.57,3.34,1.57,10.77,0,8.52.62,10.73a10.41,10.41,0,0,0,2.21,4q1.59,1.83,6,2Z"/><path class="cls-2" d="M90.24,63.87q-4.38,0-6.59,2.61T81.44,77.89A76.39,76.39,0,0,1,81,88a10.46,10.46,0,0,1-2.41,5.49,10.89,10.89,0,0,1-5,3.2,29.5,29.5,0,0,1-8.64,1H62.78V88q5.58,0,6.85-1.17T71,82.14a119.24,119.24,0,0,1,.74-13.2,15.79,15.79,0,0,1,2-5.45,12.87,12.87,0,0,1,4.76-4.42,15.76,15.76,0,0,1-4.82-4.42,13.46,13.46,0,0,1-1.85-4.72,74.69,74.69,0,0,1-.72-9.48,54.85,54.85,0,0,0-.56-7.94A3.21,3.21,0,0,0,69,30.78q-1.23-.72-6.25-.72v-9.6h2.13q6.43,0,9.93,1.47a9.41,9.41,0,0,1,5.06,4.8q1.57,3.34,1.57,10.77,0,8.52.62,10.73a10.41,10.41,0,0,0,2.21,4q1.59,1.83,6,2Z"/><path class="cls-3" d="M225.67,28.57l-12.13,12Q202,28.39,186.7,28.39q-13.36,0-22.38,8.86a29,29,0,0,0-9,21.53A29.8,29.8,0,0,0,164.68,81q9.36,9.1,23.09,9.1,8.93,0,15.06-3.75t9.88-11.75H186.48V58.4H232l.14,3.79A44.31,44.31,0,0,1,226,84.71a43,43,0,0,1-15.93,16.24q-9.78,5.6-23,5.6A51,51,0,0,1,162,100.43,44.77,44.77,0,0,1,144.51,83a48.63,48.63,0,0,1-6.43-24.42,45.39,45.39,0,0,1,11.87-31.25Q164,11.51,186.61,11.51a55.85,55.85,0,0,1,22.08,4.37Q217.36,19.58,225.67,28.57Z"/><path class="cls-3" d="M310,75.69H256A18,18,0,0,0,262.24,87q5.08,4.22,13,4.21a22.39,22.39,0,0,0,16.18-6.58l14.15,6.64a33.38,33.38,0,0,1-12.67,11.1,39.62,39.62,0,0,1-17.53,3.6q-15.75,0-25.65-9.93T239.8,71.19q0-15.32,9.87-25.44t24.76-10.12q15.81,0,25.71,10.12T310,72.48ZM293.21,62.46a16.85,16.85,0,0,0-6.56-9.1,19,19,0,0,0-11.37-3.51A20.11,20.11,0,0,0,263,53.79q-3.33,2.46-6.16,8.67Z"/><path class="cls-3" d="M314.41,37.36h19.5L347.14,55.6,360.3,37.36h19.17l-22.72,31.5,25.7,35.43H363L347,82.29l-15.89,22H312l25.4-35.21Z"/><path class="cls-3" d="M394.34,12.69h16.8V37.36h10V51.82h-10v52.47h-16.8V51.82h-8.61V37.36h8.61Z"/></svg>